# xmcd
#
# Track frame offsets: 
#        150
#        20714
#        38217
#        63164
#        88041
#        97521
#        109667
#        119748
#        138171
#        167507
#
# Disc length: 2805 seconds
#
# Revision: 0
# Processed by: cddbd v1.4PL0 Copyright (c) Steve Scherf et al.
# Submitted via: ExactAudioCopy v0.90a11
#
DISCID=780af30a
DTITLE=Julius Suka Bartos - Joj sokerava
DYEAR=1900
DGENRE=
TTITLE0=Povedz ze mi povedz, ty dunajska vodicka
TTITLE1=Marcu, ze ma maren Zeman mamu vdavcu
TTITLE2=Ande mire lale hale
TTITLE3=Aj sa romni mange lijon
TTITLE4=Joj sokerava andri krcma dzava
TTITLE5=Arpat arpat sapani
TTITLE6=Mala mango otovert
TTITLE7=Kana mam dajko nakares
TTITLE8=Ked izbicko zametala
TTITLE9=Oci oci, cierne oci
EXTD=
EXTT0=
EXTT1=
EXTT2=
EXTT3=
EXTT4=
EXTT5=
EXTT6=
EXTT7=
EXTT8=
EXTT9=
PLAYORDER=
